<svg width="26" height="25" viewBox="0 0 26 25" fill="none" xmlns="http://www.w3.org/2000/svg">
<g opacity="0.8" clip-path="url(#clip0_22_161)">
<path d="M19.552 5.24346H17.9988V3.69026C17.9988 2.72907 17.617 1.80726 16.9374 1.1276C16.2577 0.447944 15.3359 0.0661163 14.3747 0.0661163H11.2683C10.3071 0.0661163 9.3853 0.447944 8.70564 1.1276C8.02598 1.80726 7.64416 2.72907 7.64416 3.69026V5.24346H6.09095C4.58103 5.2451 3.13342 5.84565 2.06574 6.91333C0.998062 7.981 0.397519 9.42861 0.395874 10.9385L0.395874 19.2223C0.397519 20.7322 0.998062 22.1798 2.06574 23.2475C3.13342 24.3152 4.58103 24.9157 6.09095 24.9174H19.552C21.062 24.9157 22.5096 24.3152 23.5773 23.2475C24.6449 22.1798 25.2455 20.7322 25.2471 19.2223V10.9385C25.2455 9.42861 24.6449 7.981 23.5773 6.91333C22.5096 5.84565 21.062 5.2451 19.552 5.24346ZM10.7506 3.69026C10.7506 3.55295 10.8051 3.42126 10.9022 3.32416C10.9993 3.22707 11.131 3.17252 11.2683 3.17252H14.3747C14.512 3.17252 14.6437 3.22707 14.7408 3.32416C14.8379 3.42126 14.8924 3.55295 14.8924 3.69026V5.24346H10.7506V3.69026ZM22.1407 19.2223C22.1407 19.9088 21.868 20.5673 21.3825 21.0528C20.897 21.5382 20.2386 21.811 19.552 21.811H6.09095C5.40439 21.811 4.74595 21.5382 4.26048 21.0528C3.77501 20.5673 3.50228 19.9088 3.50228 19.2223V10.9385C3.50228 10.252 3.77501 9.59354 4.26048 9.10807C4.74595 8.6226 5.40439 8.34987 6.09095 8.34987H19.552C20.2386 8.34987 20.897 8.6226 21.3825 9.10807C21.868 9.59354 22.1407 10.252 22.1407 10.9385V19.2223ZM17.4811 15.0804C17.4811 15.4923 17.3175 15.8874 17.0262 16.1787C16.7349 16.47 16.3398 16.6336 15.9279 16.6336H14.3747V18.1868C14.3747 18.5988 14.2111 18.9938 13.9198 19.2851C13.6285 19.5764 13.2334 19.74 12.8215 19.74C12.4096 19.74 12.0145 19.5764 11.7232 19.2851C11.4319 18.9938 11.2683 18.5988 11.2683 18.1868V16.6336H9.71509C9.30316 16.6336 8.90809 16.47 8.61681 16.1787C8.32553 15.8874 8.16189 15.4923 8.16189 15.0804C8.16189 14.6685 8.32553 14.2734 8.61681 13.9821C8.90809 13.6908 9.30316 13.5272 9.71509 13.5272H11.2683V11.974C11.2683 11.5621 11.4319 11.167 11.7232 10.8757C12.0145 10.5844 12.4096 10.4208 12.8215 10.4208C13.2334 10.4208 13.6285 10.5844 13.9198 10.8757C14.2111 11.167 14.3747 11.5621 14.3747 11.974V13.5272H15.9279C16.3398 13.5272 16.7349 13.6908 17.0262 13.9821C17.3175 14.2734 17.4811 14.6685 17.4811 15.0804Z" fill="white"/>
</g>
<defs>
<clipPath id="clip0_22_161">
<rect width="24.8512" height="24.8512" fill="white" transform="translate(0.395874 0.0661163)"/>
</clipPath>
</defs>
</svg>
